<svg width="400" height="400" viewBox="0 0 400 400" fill="none" xmlns="http://www.w3.org/2000/svg">
<path d="M200 52L42 300" stroke="#6CBFA8" stroke-width="14" stroke-linecap="round" stroke-linejoin="round"/>
<path d="M200 52L358 300" stroke="#6CBFA8" stroke-width="14" stroke-linecap="round" stroke-linejoin="round"/>
<path d="M41.9998 300L200 200" stroke="#6CBFA8" stroke-width="14" stroke-linecap="round" stroke-linejoin="round"/>
<path d="M200 200L358 300" stroke="#6CBFA8" stroke-width="14" stroke-linecap="round" stroke-linejoin="round"/>
<path d="M100 298L200 233" stroke="#6CBFA8" stroke-width="14" stroke-linecap="round" stroke-linejoin="round"/>
<path d="M101.146 209.698L200 141" stroke="#6CBFA8" stroke-width="14" stroke-linecap="round" stroke-linejoin="round"/>
<path d="M200 233L300 298" stroke="#6CBFA8" stroke-width="14" stroke-linecap="round" stroke-linejoin="round"/>
<path d="M200 141L298.987 209.507" stroke="#6CBFA8" stroke-width="14" stroke-linecap="round" stroke-linejoin="round"/>
<path d="M87.3623 245.588C87.7529 245.464 89.3582 244.664 94.0004 241.689C102.58 236.19 112.35 229.176 120.159 224.8C123.835 222.647 126.465 221.161 130.479 218.846C132.653 217.501 135.106 215.812 138.629 213.561" stroke="#6CBFA8" stroke-width="17" stroke-linecap="round"/>
<path d="M97.3427 225.196C98.0541 224.976 98.8782 224.684 104.692 221.283C110.088 218.126 120.29 211.795 126.418 207.79C134.46 202.534 137.718 199.347 141.555 196.26C143.732 194.508 146.175 192.139 149.863 189.473C153.551 186.807 158.358 183.855 163.727 179.76C169.097 175.665 174.884 170.518 178.326 167.539C186.165 160.756 194.352 157.738 196.326 156.927C201.184 154.93 196.074 175.686 194.501 179.578C193.69 181.586 191.835 185.292 189.774 190.282C188.266 193.935 185.836 196.342 179.547 201.091C174.596 204.831 165.64 210.676 157.465 216.447C149.29 222.218 142.057 227.587 135.617 231.955C129.178 236.323 123.751 239.527 120.189 241.567C115.134 244.462 112.263 246.049 110.105 247.572C108.619 248.621 102.156 252.854 90.4385 259.813C79.5954 266.253 72.9626 269.104 71.5682 270.35C70.4534 271.346 69.2486 273.061 68.0245 274.379C67.4638 274.983 69.1567 268.989 71.9176 262.569C73.7601 258.285 75.749 256.164 81.1153 251.402C85.7205 247.315 94.5692 240.326 105.182 232.07C115.794 223.815 128.01 214.63 140.019 206.196C152.027 197.762 163.459 190.356 171.73 184.261C180.002 178.165 184.768 173.603 182.65 176.458C180.531 179.313 171.384 189.724 163.752 197.487C156.12 205.249 150.28 210.048 144.263 214.992" stroke="#6CBFA8" stroke-width="17" stroke-linecap="round"/>
<path d="M196.93 188.966C197.409 189.005 197.887 189.044 202.996 189.844C208.105 190.644 217.83 192.203 225.756 193.947C233.682 195.692 239.514 197.576 244.601 199.444C249.688 201.312 253.852 203.106 257.857 205.295C265.797 209.634 270.04 212.795 273.496 214.323C276.359 215.589 281.32 218.181 287.857 222.213C294.394 226.244 302.317 231.721 306.726 234.881C313.409 239.671 314.522 243.269 316.007 248.194C317.255 252.33 323.306 257.449 329.718 264.755C331.63 266.934 333.605 268.598 334.558 269.855C335.375 270.933 326.962 266.911 317.455 261.835C308.509 257.059 303.108 251.926 299.871 249.112C298.368 247.805 296.822 247.148 290.994 243.379C285.165 239.61 275.018 232.853 267.978 228.279C257.389 221.401 252.249 218.726 248.855 217.15C243.909 214.854 236.225 210.388 227.938 206.02C224.603 204.344 223.033 203.762 220.768 202.424C218.503 201.086 215.591 199.009 212.301 196.542" stroke="#6CBFA8" stroke-width="17" stroke-linecap="round"/>
<path d="M202.979 152.579C204.478 152.978 213.1 157.245 224.23 163.582C231.675 167.821 236.447 172.473 242.565 178.161C246.248 181.584 251.504 185.656 255.771 189.384C260.039 193.112 263.26 196.261 267.113 198.798C270.966 201.336 275.354 203.166 279.915 205.633C284.477 208.1 289.078 211.148 292.625 213.882C296.172 216.615 298.526 218.942 301.611 222.11" stroke="#6CBFA8" stroke-width="17" stroke-linecap="round"/>
<path d="M196.987 173.126C197.256 173.126 197.524 173.126 202.396 173.605C207.268 174.085 216.736 175.045 221.949 175.62C229.151 176.416 231.425 178.053 235.402 181.345C239.059 183.521 244.81 186.257 247.002 188.075C247.544 188.66 248.244 189.475 248.966 190.314" stroke="#6CBFA8" stroke-width="17" stroke-linecap="round"/>
<path d="M201.648 160.469C201.76 160.627 201.872 160.786 205.568 165.374C209.263 169.963 216.54 178.977 220.498 183.847C224.878 189.172 228.198 192.54 232.921 197.22C234.757 198.999 235.457 199.568 236.595 200.339" stroke="#6CBFA8" stroke-width="17" stroke-linecap="round"/>
</svg>
